<?xml version="1.0" encoding="utf-8"?>
<!DOCTYPE svg PUBLIC "-//W3C//DTD SVG 1.1//EN" "http://www.w3.org/Graphics/SVG/1.1/DTD/svg11.dtd">
<svg version="1.1" id="Layer_1" xmlns="http://www.w3.org/2000/svg" xmlns:xlink="http://www.w3.org/1999/xlink" x="0px" y="0px"
	 width="80px" height="80px" viewBox="20 20 40 40" xml:space="preserve">
<path fill="#888" d="M50,33.75c0-5.522-4.475-10-10-10c-5.523,0-10,4.477-10,10c0,1.824,0.498,3.528,1.35,5h-0.012L40,56.25
	l8.665-17.5h-0.013C49.507,37.277,50,35.573,50,33.75z M40.003,38.748c-2.762,0-5-2.239-5-4.999c0-2.762,2.238-5,5-5
	c2.761,0,5,2.238,5,5C45.003,36.509,42.764,38.748,40.003,38.748z"/>
</svg>
