<?xml version="1.0" encoding="UTF-8" standalone="no"?>
<svg
   xmlns="http://www.w3.org/2000/svg"
   width="10"
   height="10"
   id="svg4995"
   version="1.1">
  <g
     transform="translate(-370.0585,-527.42018)">
    <g
       transform="translate(201.6925,-248.46382)"
       id="g41">
      <path
         style="fill:#888"
         d="m 175.456,780.791 h -4.297 c -0.125,0 -0.229,-0.104 -0.229,-0.229 0,-0.021 0.004,-0.041 0.008,-0.062 l 0.229,-1.697 c 0.02,-0.104 0.113,-0.188 0.225,-0.188 h 3.832 c 0.111,0 0.205,0.082 0.225,0.188 l 0.229,1.697 c 0.004,0.021 0.008,0.039 0.008,0.062 -0.002,0.126 -0.105,0.229 -0.23,0.229 z m -0.172,1.848 c -0.242,0 -0.438,-0.194 -0.438,-0.438 0,-0.244 0.196,-0.438 0.438,-0.438 0.24,0 0.437,0.195 0.437,0.438 0,0.243 -0.197,0.438 -0.437,0.438 z m -3.959,0 c -0.24,0 -0.437,-0.194 -0.437,-0.438 0,-0.244 0.196,-0.438 0.437,-0.438 0.242,0 0.438,0.195 0.438,0.438 0,0.243 -0.196,0.438 -0.438,0.438 z m 0.678,-4.791 h 2.602 c 0.256,0 0.256,0.484 0,0.484 h -2.602 c -0.255,0 -0.255,-0.484 0,-0.484 z m 3.898,0.564 c -0.078,-0.389 -0.326,-0.543 -0.699,-0.699 -0.373,-0.154 -1.246,-0.34 -1.896,-0.34 -0.652,0 -1.525,0.186 -1.898,0.34 -0.373,0.156 -0.621,0.312 -0.699,0.699 l -0.279,2.152 v 2.965 h 0.482 v 0.465 c 0,0.565 0.83,0.565 0.83,0 v -0.465 h 3.129 v 0.465 c 0,0.565 0.828,0.565 0.828,0 v -0.465 h 0.482 v -2.965 l -0.28,-2.152 z"
         id="path47" />
    </g>
  </g>
</svg>
